# xmcd CD database file
#
# Track frame offsets:
#	150
#	17044
#	25071
#	42740
#	63123
#	95677
#
# Disc length: 1548 seconds
#
# Revision: 0
# Processed by: cddbd v1.5.1PL2 Copyright (c) Steve Scherf et al.
# Submitted via: CDex 1.50
#
DISCID=47060a06
DTITLE=GOLLBETTY - SOUL FRESH！
DYEAR=2006
DGENRE=Ska
TTITLE0=ウエヲ
TTITLE1=Crazy Sunshine
TTITLE2=Can't Stop!
TTITLE3=DoDoscoi
TTITLE4=果テマデ光ル
TTITLE5=(CD-EXTRA DATA) "ウエヲ"プロモーションビデオ
EXTD=YEAR: 2006
EXTT0=
EXTT1=
EXTT2=
EXTT3=
EXTT4=
EXTT5=
PLAYORDER=
